HIERARCHY
ROOT Hips
{
	OFFSET 0.000000 0.000000 0.000000
	CHANNELS 6 Xposition Yposition Zposition Zrotation Yrotation Xrotation 
	JOINT LHipJoint
	{
		OFFSET 0.000000 0.000000 0.000000
		CHANNELS 3 Zrotation Yrotation Xrotation
		JOINT LeftUpLeg
		{
			OFFSET 1.363060 -1.794630 0.839290
			CHANNELS 3 Zrotation Yrotation Xrotation
			JOINT LeftLeg
			{
				OFFSET 2.448110 -6.726130 0.000000
				CHANNELS 3 Zrotation Yrotation Xrotation
				JOINT LeftFoot
				{
					OFFSET 2.562200 -7.039590 0.000000
					CHANNELS 3 Zrotation Yrotation Xrotation
					JOINT LeftToeBase
					{
						OFFSET 0.157640 -0.433110 2.322550
						CHANNELS 3 Zrotation Yrotation Xrotation
						End Site
						{
							OFFSET 0.000000 0.000000 0.000000
						}
					}
				}
			}
		}
	}
	JOINT RHipJoint
	{
		OFFSET 0.000000 0.000000 0.000000
		CHANNELS 3 Zrotation Yrotation Xrotation
		JOINT RightUpLeg
		{
			OFFSET -1.305520 -1.794630 0.839290
			CHANNELS 3 Zrotation Yrotation Xrotation
			JOINT RightLeg
			{
				OFFSET -2.542530 -6.985550 0.000000
				CHANNELS 3 Zrotation Yrotation Xrotation
				JOINT RightFoot
				{
					OFFSET -2.568260 -7.056230 0.000000
					CHANNELS 3 Zrotation Yrotation Xrotation
					JOINT RightToeBase
					{
						OFFSET -0.164730 -0.452590 2.363150
						CHANNELS 3 Zrotation Yrotation Xrotation
						End Site
						{
							OFFSET 0.000000 0.000000 0.000000
						}
					}
				}
			}
		}
	}
}
MOTION
Frames: 19
Frame Time: 0.008333
-9.243815 16.791944 -2.124199 155.572355 74.487220 170.891623 -11.312316 3.182998 -1.485617 -2.852182 5.897034 -0.915589 -1.176470 1.357071 22.152653 0.464132 1.517539 9.043618 0.358200 -0.000000 -83.915200 8.945009 0.920503 1.226321 5.446220 -1.773705 -40.603591 1.517390 -0.340375 14.154182 -2.403073 -11.491794 2.657217 -3.420600 -0.000000 -18.766500
-9.022404 16.803132 -2.101831 157.327167 74.670329 172.535780 -11.454131 3.153372 -1.474757 -1.901483 5.960352 -1.802084 -0.892425 1.527487 24.576668 0.572123 1.512615 11.427627 0.331600 0.000000 -85.335000 8.827740 0.758355 1.280263 5.944685 -0.787548 -40.437359 1.463408 -0.507742 15.911334 -2.502473 -11.819581 2.066282 -3.361700 -0.000000 -16.717000
-8.804828 16.818271 -2.078908 159.169620 74.958117 174.259958 -11.594926 3.094745 -1.489074 -0.956683 6.125846 -2.785889 -0.612015 1.678847 27.099354 0.719154 1.625014 13.911684 0.324100 0.000000 -85.502500 8.702441 0.605087 1.329063 6.538057 0.228162 -40.195309 1.433552 -0.648491 17.527777 -2.593265 -12.068915 1.232808 -3.225099 -0.000000 -14.670700
-8.591281 16.836564 -2.054155 160.915786 75.329844 175.884222 -11.721124 3.010272 -1.519842 -0.107300 6.331406 -3.837265 -0.351885 1.809002 29.696488 0.903862 1.961530 16.350422 0.392700 0.000000 -84.215000 8.580846 0.471051 1.364732 7.176469 1.204380 -39.870863 1.422497 -0.763574 18.990747 -2.676535 -12.242524 0.183367 -3.015500 -0.000001 -12.692400
-8.381930 16.857459 -2.027805 162.599706 75.774497 177.443394 -11.831280 2.899912 -1.566046 0.645051 6.568981 -4.961295 -0.124536 1.922026 32.374211 1.115387 2.562373 18.573835 0.582600 0.000000 -81.435700 8.463292 0.354086 1.385835 7.865046 2.120060 -39.433088 1.429584 -0.848916 20.244721 -2.758580 -12.380386 -1.016882 -2.756800 0.000000 -10.817200
-8.176529 16.880335 -1.998919 164.076886 76.265726 178.797512 -11.919723 2.771893 -1.622490 1.246860 6.806421 -6.151819 0.062646 2.024440 35.117737 1.341325 3.485485 20.426187 0.944700 -0.000000 -77.301701 8.357775 0.256180 1.391116 8.559398 2.926551 -38.877814 1.450147 -0.905503 21.270195 -2.837539 -12.480586 -2.303103 -2.462900 -0.000000 -9.106700
-7.974830 16.904800 -1.967440 165.321862 76.784262 179.924472 -11.987137 2.632768 -1.687409 1.693859 7.036309 -7.416443 0.210602 2.125111 37.913215 1.569495 4.735623 21.788499 1.494900 -0.000000 -72.184400 8.265952 0.173178 1.383145 9.244887 3.607623 -38.194876 1.482129 -0.932532 22.033160 -2.912774 -12.554562 -3.596819 -2.155100 0.000000 -7.605600
-7.776367 16.930597 -1.933194 166.287058 77.310099 -179.217822 -12.034350 2.489563 -1.757404 1.980368 7.245275 -8.758643 0.326409 2.231105 40.731447 1.792166 6.289757 22.603098 2.217900 0.000000 -66.610100 8.190025 0.101407 1.365220 9.900693 4.152044 -37.386992 1.523214 -0.930810 22.514662 -2.980453 -12.599517 -4.826842 -1.852100 -0.000000 -6.347900
-7.580738 16.957628 -1.896164 166.946608 77.827794 -178.650940 -12.062945 2.347495 -1.828143 2.110156 7.418811 -10.177401 0.419991 2.346201 43.535310 2.005858 8.089081 22.871874 3.064500 0.000000 -61.105599 8.131004 0.037209 1.340988 10.511050 4.560169 -36.463007 1.571581 -0.901880 22.707279 -3.035761 -12.608382 -5.934677 -1.569600 -0.000000 -5.337800
-7.387440 16.985872 -1.856467 167.279480 78.326453 -178.390595 -12.074402 2.210082 -1.895100 2.090435 7.542281 -11.667626 0.500552 2.470800 46.285312 2.209299 10.047674 22.635100 3.962600 0.000000 -56.014100 8.089403 -0.021845 1.314146 11.061558 4.841892 -35.438858 1.625519 -0.847923 22.617220 -3.073550 -12.569993 -6.881049 -1.319500 0.000000 -4.546500
-7.196034 17.015456 -1.814364 167.282532 78.800732 -178.434773 -12.070075 2.078154 -1.952721 1.932687 7.597568 -13.217134 0.575267 2.601149 48.930916 2.404550 12.080764 21.993742 4.845000 0.000000 -51.833899 8.064531 -0.076970 1.288032 11.542448 5.017058 -34.334878 1.683567 -0.771475 22.262465 -3.090117 -12.475315 -7.648384 -1.108400 -0.000000 -3.905200
-7.006110 17.046466 -1.770166 166.952042 79.250213 -178.785181 -12.051078 1.952881 -1.998771 1.650478 7.580888 -14.814445 0.647652 2.734017 51.439226 2.588279 14.077210 21.003130 5.631700 -0.000001 -48.292200 8.055542 -0.128569 1.266659 11.944979 5.111278 -33.172820 1.743996 -0.675601 21.673749 -3.083613 -12.317834 -8.241607 -0.937100 -0.000000 -3.326300
-6.817345 17.079040 -1.724278 166.300635 79.680124 -179.427134 -12.018348 1.833300 -2.030211 1.260685 7.484045 -16.439182 0.718985 2.863317 53.761617 2.760234 15.957150 19.781646 6.278600 -0.000001 -45.588300 8.060301 -0.175968 1.252787 12.266707 5.156645 -31.972095 1.805160 -0.563319 20.887150 -3.055023 -12.099030 -8.681456 -0.802000 -0.000000 -2.712300
-6.629512 17.113156 -1.677218 165.347549 80.098729 179.657862 -11.972866 1.718725 -2.046274 0.783252 7.308577 -18.071973 0.788275 2.984264 55.861974 2.916265 17.639648 18.416034 6.751600 0.000000 -43.561100 8.076056 -0.218412 1.249149 12.509736 5.186495 -30.748753 1.865386 -0.437688 19.942543 -3.007795 -11.827181 -9.000628 -0.695900 -0.000000 -1.978300
-6.442396 17.148763 -1.629519 164.101472 80.517576 178.476194 -11.915102 1.608319 -2.046547 0.237055 7.055325 -19.688745 0.853217 3.091879 57.702635 3.052579 19.068869 17.007331 7.046600 0.000000 -42.176800 8.100219 -0.254656 1.256759 12.678745 5.230880 -29.513160 1.923004 -0.301828 18.879767 -2.946346 -11.513185 -9.235507 -0.610300 0.000000 -1.067600
-6.255858 17.185594 -1.581670 162.557244 80.948094 177.018810 -11.845294 1.501776 -2.031613 -0.359365 6.729929 -21.268718 0.910945 3.182669 59.257894 3.164065 20.201501 15.632182 7.173300 -0.000000 -41.300200 8.130848 -0.283687 1.275563 12.780394 5.311829 -28.272338 1.976472 -0.158938 17.736931 -2.875443 -11.169342 -9.420487 179.462900 -0.000000 -0.039200
-6.069831 17.223242 -1.534051 160.689481 81.401307 175.253995 -11.763205 1.399260 -2.002295 -0.988099 6.338707 -22.790092 0.958574 3.253938 60.506946 3.247141 21.019681 14.367280 7.161800 -0.000000 -40.907000 8.166916 -0.304623 1.303584 12.823847 5.441791 -27.026780 2.024644 -0.012048 16.546002 -2.798741 -10.805465 -9.581301 179.529600 -0.000000 -1.321701
-5.884199 17.261135 -1.486987 158.442390 81.885613 173.119553 -11.668029 1.301715 -1.959836 -1.634228 5.891001 -24.237517 0.993688 3.304647 61.442012 3.299172 21.522852 13.258784 7.045000 0.000000 -40.895900 8.209051 -0.317033 1.337828 12.818452 5.621607 -25.775742 2.066907 0.135769 15.333899 -2.717899 -10.425484 -9.731891 179.593300 -0.000000 -2.719799
-5.698867 17.298570 -1.440668 155.727573 82.406066 170.520579 -11.558229 1.210503 -1.905416 -2.284734 5.397262 -25.600624 1.014589 3.334811 62.064066 3.320057 21.732336 12.334041 6.858500 0.000000 -41.183100 8.259581 -0.320938 1.374419 12.773667 5.841690 -24.517091 2.103286 0.281512 14.121586 -2.632311 -10.026875 -9.873517 179.654301 0.000000 -4.143900
